 <svg xmlns="http://www.w3.org/2000/svg" version="1.1" width="516px" height="279px" style="shape-rendering:geometricPrecision; text-rendering:geometricPrecision; image-rendering:optimizeQuality; fill-rule:evenodd; clip-rule:evenodd" xmlnsXlink="http://www.w3.org/1999/xlink">
  <g><path style="opacity:0.981" fill="#df5fd4" d="M 169.5,103.5 C 169.427,105.027 170.094,106.027 171.5,106.5C 183.928,128.353 195.595,150.686 206.5,173.5C 206.167,177.5 205.833,181.5 205.5,185.5C 205.5,186.167 205.167,186.5 204.5,186.5C 202.833,187.5 201.5,188.833 200.5,190.5C 193.401,194.774 186.901,193.774 181,187.5C 159.333,146.833 137.667,106.167 116,65.5C 113.254,54.0012 117.754,47.3345 129.5,45.5C 138.1,46.5897 143.933,51.2564 147,59.5C 154.782,74.0638 162.282,88.7304 169.5,103.5 Z"/></g>
  <g><path style="opacity:0.039" fill="#f0fafa" d="M 382.5,51.5 C 386.339,51.6121 386.339,52.2787 382.5,53.5C 381.537,53.0302 381.537,52.3635 382.5,51.5 Z"/></g>
  <g><path style="opacity:0.971" fill="#363636" d="M 341.5,73.5 C 342.625,81.1132 343.958,88.4465 345.5,95.5C 352.063,94.807 358.396,94.807 364.5,95.5C 365.925,96.922 366.925,98.5887 367.5,100.5C 367.425,103.206 367.092,105.873 366.5,108.5C 366.5,109.167 366.167,109.5 365.5,109.5C 358.035,110.101 350.702,110.768 343.5,111.5C 343.333,126.504 343.5,141.504 344,156.5C 344.377,157.942 345.21,158.942 346.5,159.5C 347.262,161.262 348.596,162.262 350.5,162.5C 352.279,164.344 354.612,165.01 357.5,164.5C 365.717,163.976 369.217,167.643 368,175.5C 367.578,177.426 366.411,178.426 364.5,178.5C 359.213,179.342 353.88,179.676 348.5,179.5C 335.479,178.65 326.979,171.984 323,159.5C 322.817,151.255 322.317,143.088 321.5,135C 322.056,134.617 322.389,134.117 322.5,133.5C 322.5,126.167 322.5,118.833 322.5,111.5C 318.833,111.5 315.167,111.5 311.5,111.5C 308.901,111.451 306.734,110.451 305,108.5C 304.333,105.5 304.333,102.5 305,99.5C 305.5,97.6667 306.667,96.5 308.5,96C 313.086,95.8029 317.586,95.3029 322,94.5C 322.333,87.8333 322.667,81.1667 323,74.5C 328.95,68.4002 335.117,68.0669 341.5,73.5 Z"/></g>
  <g><path style="opacity:0.201" fill="#cbcccc" d="M 341.5,73.5 C 342.79,74.0577 343.623,75.0577 344,76.5C 344.207,82.9135 344.707,89.2469 345.5,95.5C 343.958,88.4465 342.625,81.1132 341.5,73.5 Z"/></g>
  <g><path style="opacity:0.981" fill="#e05fd4" d="M 117.5,115.5 C 115.896,116.287 115.229,117.62 115.5,119.5C 114.094,119.973 113.427,120.973 113.5,122.5C 112.674,125.485 111.341,128.151 109.5,130.5C 103.82,138.521 99.153,147.188 95.5,156.5C 93.5932,161.984 90.9266,166.984 87.5,171.5C 84.7417,174.678 82.7417,178.345 81.5,182.5C 79.197,189.005 74.5304,192.671 67.5,193.5C 55.5679,190.625 51.0679,183.291 54,171.5C 66.4904,146.517 79.4904,121.851 93,97.5C 101.905,90.4032 110.239,91.0699 118,99.5C 120.15,104.965 119.983,110.299 117.5,115.5 Z"/></g>
  <g><path style="opacity:0.012" fill="#fefffe" d="M 364.5,95.5 C 363.632,93.1081 364.299,92.9414 366.5,95C 365.906,95.4643 365.239,95.631 364.5,95.5 Z"/></g>
  <g><path style="opacity:0.976" fill="#393939" d="M 235.5,97.5 C 235.461,98.7562 235.961,99.7562 237,100.5C 237.333,117.167 237.667,133.833 238,150.5C 238.21,152.058 238.71,153.391 239.5,154.5C 240.879,157.386 242.879,159.886 245.5,162C 258.854,165.078 267.687,160.245 272,147.5C 272.112,131.132 272.778,114.799 274,98.5C 274.833,97 276,95.8333 277.5,95C 286.865,92.0933 292.698,95.26 295,104.5C 295.818,127.852 295.485,151.185 294,174.5C 292.809,177.534 290.642,179.201 287.5,179.5C 284.833,179.5 282.167,179.5 279.5,179.5C 275.333,178.063 273.333,175.063 273.5,170.5C 273.657,169.127 273.49,167.793 273,166.5C 271.668,168.66 270.168,170.66 268.5,172.5C 267.415,174.587 265.749,175.92 263.5,176.5C 261.973,176.427 260.973,177.094 260.5,178.5C 259.791,179.404 258.791,179.737 257.5,179.5C 250.833,179.5 244.167,179.5 237.5,179.5C 227.19,176.689 220.69,170.022 218,159.5C 216.7,139.676 216.367,119.343 217,98.5C 219.536,95.2337 222.869,93.9004 227,94.5C 228.833,94.6667 230.667,94.8333 232.5,95C 233.942,95.3768 234.942,96.2101 235.5,97.5 Z"/></g>
  <g><path style="opacity:0.976" fill="#383838" d="M 436.5,178.5 C 427.854,179.253 419.188,179.587 410.5,179.5C 392.416,175.913 381.916,164.913 379,146.5C 375.595,129.141 380.095,114.308 392.5,102C 406.848,93.0985 422.181,91.0985 438.5,96C 452.113,101.282 460.28,111.115 463,125.5C 467.102,143.609 462.602,159.109 449.5,172C 445.691,175.238 441.358,177.404 436.5,178.5 Z M 428.5,111.5 C 430.456,112.492 432.456,113.492 434.5,114.5C 443.865,127.523 444.865,141.19 437.5,155.5C 435.167,157.167 433.167,159.167 431.5,161.5C 417.697,166.682 407.697,162.682 401.5,149.5C 400.467,140.818 400.467,132.152 401.5,123.5C 402.674,122.486 403.34,121.153 403.5,119.5C 405.063,118.055 406.396,116.389 407.5,114.5C 409.255,113.928 410.922,113.094 412.5,112C 417.823,111.501 423.156,111.334 428.5,111.5 Z"/></g>
  <g><path style="opacity:0.304" fill="#adadad" d="M 235.5,97.5 C 236.458,97.9528 237.292,98.6195 238,99.5C 238.234,117.853 238.734,136.186 239.5,154.5C 238.71,153.391 238.21,152.058 238,150.5C 237.667,133.833 237.333,117.167 237,100.5C 235.961,99.7562 235.461,98.7562 235.5,97.5 Z"/></g>
  <g><path style="opacity:0.212" fill="#dcdcdc" d="M 367.5,100.5 C 368.917,103.34 368.584,106.007 366.5,108.5C 367.092,105.873 367.425,103.206 367.5,100.5 Z"/></g>
  <g><path style="opacity:0.212" fill="#f2baec" d="M 169.5,103.5 C 170.906,103.973 171.573,104.973 171.5,106.5C 170.094,106.027 169.427,105.027 169.5,103.5 Z"/></g>
  <g><path style="opacity:0.549" fill="#7c7c7c" d="M 365.5,109.5 C 364.01,111.28 362.01,111.946 359.5,111.5C 354.167,111.5 348.833,111.5 343.5,111.5C 350.702,110.768 358.035,110.101 365.5,109.5 Z"/></g>
  <g><path style="opacity:0.239" fill="#bdbebe" d="M 428.5,111.5 C 423.156,111.334 417.823,111.501 412.5,112C 410.922,113.094 409.255,113.928 407.5,114.5C 409.12,112.016 411.453,110.516 414.5,110C 419.444,109.127 424.11,109.627 428.5,111.5 Z"/></g>
  <g><path style="opacity:0.624" fill="#959595" d="M 428.5,111.5 C 431.313,111.025 433.313,112.025 434.5,114.5C 432.456,113.492 430.456,112.492 428.5,111.5 Z"/></g>
  <g><path style="opacity:0.18" fill="#a5a6a6" d="M 311.5,111.5 C 315.167,111.5 318.833,111.5 322.5,111.5C 322.5,118.833 322.5,126.167 322.5,133.5C 321.509,126.687 321.175,119.687 321.5,112.5C 317.958,112.813 314.625,112.479 311.5,111.5 Z"/></g>
  <g><path style="opacity:0.216" fill="#f8dcf6" d="M 117.5,115.5 C 117.34,117.153 116.674,118.486 115.5,119.5C 115.229,117.62 115.896,116.287 117.5,115.5 Z"/></g>
  <g><path style="opacity:0.216" fill="#f8e2f6" d="M 115.5,119.5 C 115.573,121.027 114.906,122.027 113.5,122.5C 113.427,120.973 114.094,119.973 115.5,119.5 Z"/></g>
  <g><path style="opacity:0.271" fill="#b3b3b3" d="M 403.5,119.5 C 403.34,121.153 402.674,122.486 401.5,123.5C 401.229,121.62 401.896,120.287 403.5,119.5 Z"/></g>
  <g><path style="opacity:0.334" fill="#d9d9d9" d="M 343.5,111.5 C 348.833,111.5 354.167,111.5 359.5,111.5C 354.695,112.487 349.695,112.821 344.5,112.5C 344.148,128.241 344.814,143.907 346.5,159.5C 345.21,158.942 344.377,157.942 344,156.5C 343.5,141.504 343.333,126.504 343.5,111.5 Z"/></g>
  <g><path style="opacity:0.456" fill="#d0d0d0" d="M 401.5,123.5 C 400.467,132.152 400.467,140.818 401.5,149.5C 400.021,145.091 399.354,140.424 399.5,135.5C 399.278,131.203 399.945,127.203 401.5,123.5 Z"/></g>
  <g><path style="opacity:0.961" fill="#805ef6" d="M 144.5,150.5 C 144.628,154.881 144.295,159.215 143.5,163.5C 140.762,166.246 137.762,168.58 134.5,170.5C 130.821,170.276 127.154,169.942 123.5,169.5C 115.825,165.474 112.992,159.141 115,150.5C 116.598,145.901 119.765,143.068 124.5,142C 133.526,139.688 140.193,142.521 144.5,150.5 Z"/></g>
  <g><path style="opacity:0.239" fill="#f8dcf5" d="M 109.5,130.5 C 105.338,139.493 100.672,148.16 95.5,156.5C 99.153,147.188 103.82,138.521 109.5,130.5 Z"/></g>
  <g><path style="opacity:0.486" fill="#bda9fb" d="M 144.5,150.5 C 145.161,152.134 145.494,153.967 145.5,156C 145.7,158.866 145.033,161.366 143.5,163.5C 144.295,159.215 144.628,154.881 144.5,150.5 Z"/></g>
  <g><path style="opacity:0.416" fill="#9b9c9c" d="M 437.5,155.5 C 436.5,158.5 434.5,160.5 431.5,161.5C 433.167,159.167 435.167,157.167 437.5,155.5 Z"/></g>
  <g><path style="opacity:0.047" fill="#898989" d="M 350.5,162.5 C 352.952,163.065 355.285,163.732 357.5,164.5C 354.612,165.01 352.279,164.344 350.5,162.5 Z"/></g>
  <g><path style="opacity:0.173" fill="#e3dcfd" d="M 143.5,163.5 C 141.975,167.688 138.975,170.021 134.5,170.5C 137.762,168.58 140.762,166.246 143.5,163.5 Z"/></g>
  <g><path style="opacity:0.106" fill="#e3d9fe" d="M 123.5,169.5 C 127.154,169.942 130.821,170.276 134.5,170.5C 130.735,171.774 127.069,171.441 123.5,169.5 Z"/></g>
  <g><path style="opacity:0.031" fill="#cecfcf" d="M 273.5,170.5 C 271.833,171.167 270.167,171.833 268.5,172.5C 270.168,170.66 271.668,168.66 273,166.5C 273.49,167.793 273.657,169.127 273.5,170.5 Z"/></g>
  <g><path style="opacity:0.259" fill="#f7d2f3" d="M 87.5,171.5 C 86.2583,175.655 84.2583,179.322 81.5,182.5C 82.7417,178.345 84.7417,174.678 87.5,171.5 Z"/></g>
  <g><path style="opacity:0.008" fill="#d4d4d4" d="M 263.5,176.5 C 263.027,177.906 262.027,178.573 260.5,178.5C 260.973,177.094 261.973,176.427 263.5,176.5 Z"/></g>
  <g><path style="opacity:0.275" fill="#eda3e6" d="M 206.5,173.5 C 207.16,174.964 207.493,176.631 207.5,178.5C 207.684,181.205 207.017,183.538 205.5,185.5C 205.833,181.5 206.167,177.5 206.5,173.5 Z"/></g>
  <g><path style="opacity:0.59" fill="#8e8f8f" d="M 237.5,179.5 C 244.167,179.5 250.833,179.5 257.5,179.5C 250.85,181.95 244.183,181.95 237.5,179.5 Z"/></g>
  <g><path style="opacity:0.427" fill="#9fa0a0" d="M 279.5,179.5 C 282.167,179.5 284.833,179.5 287.5,179.5C 284.711,181.714 282.044,181.714 279.5,179.5 Z"/></g>
  <g><path style="opacity:0.353" fill="#9e9f9f" d="M 364.5,178.5 C 364.082,179.222 363.416,179.722 362.5,180C 357.648,180.815 352.981,180.648 348.5,179.5C 353.88,179.676 359.213,179.342 364.5,178.5 Z"/></g>
  <g><path style="opacity:0.458" fill="#868787" d="M 436.5,178.5 C 427.862,181.477 419.195,181.81 410.5,179.5C 419.188,179.587 427.854,179.253 436.5,178.5 Z"/></g>
  <g><path style="opacity:0.043" fill="#fae6f8" d="M 204.5,186.5 C 204.167,188.833 202.833,190.167 200.5,190.5C 201.5,188.833 202.833,187.5 204.5,186.5 Z"/></g>
  <g><path style="opacity:0.931" fill="#f7f8f8" d="M 239.5,210.5 C 239.5,216.833 239.5,223.167 239.5,229.5C 240.5,229.5 241.5,229.5 242.5,229.5C 242.5,226.833 242.5,224.167 242.5,221.5C 251.276,222.402 254.609,218.735 252.5,210.5C 256.33,202.825 261.83,201.491 269,206.5C 270.66,209.77 270.994,213.103 270,216.5C 271.019,212.774 272.353,209.107 274,205.5C 274.75,204.874 275.584,204.374 276.5,204C 282.167,204.667 287.833,204.667 293.5,204C 295.019,205.351 296.352,206.851 297.5,208.5C 302.369,204.539 307.202,204.539 312,208.5C 312.85,214.559 314.35,220.392 316.5,226C 316.68,230.31 314.68,232.976 310.5,234C 299.424,235.363 288.758,234.196 278.5,230.5C 274.986,232.727 271.319,234.394 267.5,235.5C 265.307,235.674 263.473,235.007 262,233.5C 257.389,236.141 253.222,235.474 249.5,231.5C 243.882,235.778 238.882,235.112 234.5,229.5C 230.496,233.807 225.996,234.474 221,231.5C 219.833,232.667 218.667,233.833 217.5,235C 212.833,235.667 208.167,235.667 203.5,235C 198.167,230 198.167,225 203.5,220C 201.193,210.637 204.86,206.637 214.5,208C 216.51,210.042 218.176,209.709 219.5,207C 224.577,205.229 229.577,205.563 234.5,208C 235.787,209.41 236.954,210.91 238,212.5C 238.278,211.584 238.778,210.918 239.5,210.5 Z"/></g>
  <g><path style="opacity:1" fill="#3b3b3b" d="M 258.5,208.5 C 260.456,214.412 261.123,220.745 260.5,227.5C 263.572,227.183 266.572,227.516 269.5,228.5C 265.893,229.489 262.226,229.823 258.5,229.5C 258.5,222.5 258.5,215.5 258.5,208.5 Z"/></g>
  <g><path style="opacity:1" fill="#464646" d="M 273.5,208.5 C 274.5,208.5 275.5,208.5 276.5,208.5C 276.5,215.5 276.5,222.5 276.5,229.5C 275.5,229.5 274.5,229.5 273.5,229.5C 273.5,222.5 273.5,215.5 273.5,208.5 Z"/></g>
  <g><path style="opacity:1" fill="#545555" d="M 221.5,208.5 C 224.85,208.335 228.183,208.502 231.5,209C 236.769,212.819 236.769,216.819 231.5,221C 229.19,221.497 226.857,221.663 224.5,221.5C 224.5,224.167 224.5,226.833 224.5,229.5C 223.5,229.5 222.5,229.5 221.5,229.5C 221.5,222.5 221.5,215.5 221.5,208.5 Z"/></g>
  <g><path style="opacity:1" fill="#fafbfb" d="M 224.5,211.5 C 226.857,211.337 229.19,211.503 231.5,212C 232.833,214 232.833,216 231.5,218C 229.19,218.497 226.857,218.663 224.5,218.5C 224.5,216.167 224.5,213.833 224.5,211.5 Z"/></g>
  <g><path style="opacity:1" fill="#505050" d="M 208.5,208.5 C 209.833,208.5 211.167,208.5 212.5,208.5C 213.704,215.774 215.704,222.774 218.5,229.5C 217.5,229.5 216.5,229.5 215.5,229.5C 215.167,227.5 214.833,225.5 214.5,223.5C 211.5,223.5 208.5,223.5 205.5,223.5C 205.167,225.5 204.833,227.5 204.5,229.5C 203.325,229.719 202.325,229.386 201.5,228.5C 204.24,221.945 206.574,215.278 208.5,208.5 Z"/></g>
  <g><path style="opacity:1" fill="#e7e8e8" d="M 209.5,212.5 C 211.693,214.522 212.693,217.189 212.5,220.5C 210.712,220.785 209.045,220.452 207.5,219.5C 208.325,217.199 208.992,214.865 209.5,212.5 Z"/></g>
  <g><path style="opacity:1" fill="#5a5b5b" d="M 252.5,210.5 C 254.609,218.735 251.276,222.402 242.5,221.5C 242.5,224.167 242.5,226.833 242.5,229.5C 241.5,229.5 240.5,229.5 239.5,229.5C 239.5,223.167 239.5,216.833 239.5,210.5C 240.692,208.078 242.692,207.078 245.5,207.5C 248.501,207.172 250.834,208.172 252.5,210.5 Z"/></g>
  <g><path style="opacity:1" fill="#a7a8a8" d="M 248.5,211.5 C 246.833,211.5 245.167,211.5 243.5,211.5C 243.5,213.833 243.5,216.167 243.5,218.5C 245.5,218.5 247.5,218.5 249.5,218.5C 247.393,219.468 245.059,219.802 242.5,219.5C 242.5,216.5 242.5,213.5 242.5,210.5C 244.735,210.205 246.735,210.539 248.5,211.5 Z"/></g>
  <g><path style="opacity:1" fill="#f4f5f5" d="M 248.5,211.5 C 250.484,211.484 251.484,212.484 251.5,214.5C 251.248,216.073 250.582,217.406 249.5,218.5C 247.5,218.5 245.5,218.5 243.5,218.5C 243.5,216.167 243.5,213.833 243.5,211.5C 245.167,211.5 246.833,211.5 248.5,211.5 Z"/></g>
  <g><path style="opacity:1" fill="#535353" d="M 304.5,208.5 C 305.5,208.5 306.5,208.5 307.5,208.5C 309.428,215.282 311.761,221.949 314.5,228.5C 313.349,229.731 312.183,229.731 311,228.5C 310.506,226.866 310.34,225.199 310.5,223.5C 307.5,223.5 304.5,223.5 301.5,223.5C 301.167,225.5 300.833,227.5 300.5,229.5C 299.325,229.719 298.325,229.386 297.5,228.5C 300.333,221.985 302.667,215.319 304.5,208.5 Z"/></g>
  <g><path style="opacity:1" fill="#e5e6e6" d="M 305.5,212.5 C 307.655,214.617 308.655,217.284 308.5,220.5C 306.712,220.785 305.045,220.452 303.5,219.5C 304.17,217.137 304.837,214.804 305.5,212.5 Z"/></g>
  <g><path style="opacity:1" fill="#4b4b4b" d="M 285.5,208.5 C 289.302,207.88 292.635,208.714 295.5,211C 295,211.5 294.5,212 294,212.5C 283.552,210.997 280.552,215.33 285,225.5C 288.13,228.122 291.297,228.122 294.5,225.5C 295.308,225.808 295.975,226.308 296.5,227C 293.199,229.374 289.533,230.04 285.5,229C 280.188,222.099 280.188,215.266 285.5,208.5 Z"/></g>
  </svg>
