<svg width="10955" height="7722" viewBox="0 0 10955 7722" fill="none" xmlns="http://www.w3.org/2000/svg">
<rect width="10955" height="7722" />
<g clip-path="url(#clip0_0_1)">
<path d="M8915.54 776.097C8985.53 531.412 8918.98 246.051 8692.84 85.1056C8688.42 359.048 8571.08 622.821 8361.59 829.755C8280.46 909.31 8180.56 990.554 8176.63 1096.16C8174.18 1161.87 8211.61 1224.98 8263.18 1273.65C8314.75 1322.32 8379.81 1358.74 8444.1 1394.6L8453.55 1408.88C8660.5 1229.97 8845.54 1020.78 8915.54 776.097Z" fill="#F0F0F0"/>
<path d="M8688.29 88.6804C8775.02 283.511 8787.92 496.809 8725.15 698.279C8712.54 741.857 8691.99 783.458 8664.26 821.551C8635.85 857.91 8596.6 887.086 8550.58 906.046C8508.09 924.464 8462.14 939.086 8425.61 966.035C8407.15 980.068 8392.36 997.287 8382.21 1016.56C8372.06 1035.84 8366.78 1056.73 8366.72 1077.88C8364.95 1130.57 8385.38 1180.66 8407.35 1229.05C8431.74 1282.77 8458.06 1338.24 8452.42 1397.07C8451.74 1404.19 8464.68 1404.68 8465.36 1397.57C8475.17 1295.23 8394.07 1208.78 8381.21 1109.52C8375.21 1063.2 8385.46 1015.05 8425.42 981.28C8460.36 951.749 8507.73 936.636 8550.94 918.306C8596.15 900.374 8635.54 873.227 8665.68 839.238C8695.59 802.477 8717.97 761.624 8731.88 718.427C8765.01 621.604 8780.16 520.92 8776.8 420.062C8773.7 304.936 8747.64 191.112 8699.76 83.5155C8696.8 76.857 8685.35 82.0654 8688.29 88.6804Z" fill="white"/>
<path d="M8749.82 634.426C8790.69 638.863 8832.07 630.704 8866.56 611.407C8901.06 592.11 8926.43 562.931 8938.15 529.081C8940.49 522.225 8928.17 518.782 8925.82 525.648C8914.98 557.186 8891.35 584.364 8859.18 602.277C8827.01 620.191 8788.43 627.659 8750.4 623.334C8742.14 622.402 8741.6 633.5 8749.82 634.426Z" fill="white"/>
<path d="M8573.56 899.139C8521.38 842.493 8496.02 771.07 8502.55 699.111C8503.2 691.983 8490.26 691.489 8489.6 698.609C8482.97 773.501 8509.54 847.782 8563.99 906.628C8569.19 912.233 8578.73 904.715 8573.56 899.139Z" fill="white"/>
<path d="M8758.1 311.095C8741.87 312.203 8725.57 309.838 8710.67 304.213C8695.77 298.588 8682.73 289.879 8672.73 278.869C8667.62 273.209 8658.08 280.734 8663.16 286.357C8674.28 298.478 8688.69 308.08 8705.14 314.326C8721.58 320.572 8739.57 323.271 8757.51 322.188C8759.21 322.207 8760.86 321.67 8762.11 320.687C8763.37 319.703 8764.14 318.347 8764.27 316.893C8764.34 315.424 8763.73 313.991 8762.58 312.905C8761.42 311.82 8759.81 311.169 8758.1 311.095Z" fill="white"/>
<path d="M7714.9 243.508C7717.97 247.119 7721.05 250.731 7724.09 254.432C7765.11 303.171 7801.45 354.685 7832.74 408.468C7835.23 412.593 7837.69 416.806 7840.04 420.984C7913.82 551.246 7958.73 692.116 7972.5 836.43C7977.92 893.861 7978.24 951.562 7973.44 1009.03C7966.81 1088.4 7952.26 1174.01 7975.91 1248.43C7978.28 1256.22 7981.21 1263.87 7984.68 1271.35L8432.49 1417.64C8433.7 1417.54 8434.88 1417.52 8436.1 1417.42L8453.67 1423.96C8454.15 1421.01 8454.59 1417.94 8455.08 1414.99C8455.37 1413.28 8455.56 1411.54 8455.85 1409.83C8456.02 1408.68 8456.17 1407.53 8456.4 1406.5C8456.45 1406.12 8456.5 1405.73 8456.52 1405.44C8456.74 1404.41 8456.83 1403.43 8457.01 1402.49C8459.49 1385.35 8461.83 1368.16 8464.03 1350.93C8464.07 1350.84 8464.07 1350.84 8464.01 1350.72C8482.26 1219.55 8482.3 1086.99 8464.11 955.814C8463.51 951.906 8462.95 947.912 8462.14 943.937C8452.73 885.425 8437.75 827.672 8417.36 771.252C8406.08 740.388 8392.98 710.034 8378.12 680.306C8339.54 603.557 8287.12 532.487 8222.78 469.699C8094.49 344.548 7920.93 255.956 7729.53 244.277C7724.64 243.981 7719.84 243.715 7714.9 243.508Z" fill="#F0F0F0"/>
<path d="M7713.74 248.708C7919.85 359.516 8079.99 523.168 8171.4 716.419C8191.94 757.722 8204.76 801.542 8209.38 846.265C8212.23 889.956 8201.39 933.506 8177.97 972.39C8156.98 1009.02 8130.56 1044.41 8120.33 1084.77C8115.45 1105.5 8115.73 1126.88 8121.17 1147.51C8126.61 1168.14 8137.07 1187.55 8151.87 1204.47C8187.47 1247.44 8238.97 1276.9 8290.5 1304.2C8347.72 1334.51 8407.7 1365.22 8444.52 1415.09C8448.98 1421.14 8459.66 1414.85 8455.21 1408.82C8391.15 1322.04 8265.67 1294.87 8185.67 1222.25C8148.34 1188.36 8122.7 1144.63 8130.88 1097.05C8138.03 1055.44 8165.24 1018.93 8186.87 981.994C8210.36 944.349 8222.75 902.345 8222.94 859.652C8220.99 814.871 8210.16 770.701 8190.93 729.033C8149.36 634.633 8090.73 546.421 8017.19 467.629C7933.85 377.306 7833.09 299.868 7719.27 238.665C7712.23 234.88 7706.74 244.947 7713.74 248.708Z" fill="white"/>
<path d="M8146.24 652.708C8181.99 635.161 8209.3 607.295 8223.28 574.086C8237.27 540.877 8237.03 504.487 8222.61 471.415C8219.66 464.732 8207.41 468.341 8210.36 475.033C8223.86 505.808 8224.08 539.706 8210.97 570.607C8197.87 601.509 8172.32 627.379 8138.92 643.549C8131.66 647.07 8139.03 656.209 8146.24 652.708Z" fill="white"/>
<path d="M8191.46 955.017C8110 936.717 8039.58 892.774 7994.25 831.951C7989.76 825.921 7979.08 832.206 7983.56 838.228C8030.88 901.446 8104.27 947.048 8189.08 965.932C8197.17 967.728 8199.5 956.803 8191.46 955.017Z" fill="white"/>
<path d="M7925.72 390.275C7913.54 399.534 7898.86 406.056 7883.01 409.253C7867.16 412.451 7850.64 412.225 7834.92 408.595C7826.86 406.713 7824.54 417.641 7832.54 419.51C7849.93 423.451 7868.18 423.682 7885.7 420.182C7903.22 416.683 7919.47 409.559 7933.04 399.434C7934.41 398.571 7935.35 397.294 7935.66 395.86C7935.98 394.426 7935.64 392.945 7934.72 391.716C7933.75 390.507 7932.25 389.678 7930.57 389.408C7928.88 389.139 7927.14 389.45 7925.72 390.275Z" fill="white"/>
<path d="M7122.8 5770.61C5621.46 5770.61 4400.04 4723.77 4400.04 3437.03C4400.04 2150.29 5621.46 1103.44 7122.8 1103.44C7281.52 1103.43 7439.95 1115.19 7596.3 1138.61C7598.25 1138.9 7600.12 1139.51 7601.79 1140.42C7603.46 1141.33 7604.91 1142.51 7606.05 1143.89C7607.18 1145.28 7607.99 1146.85 7608.42 1148.5C7608.86 1150.16 7608.9 1151.87 7608.56 1153.54C7608.22 1155.21 7607.5 1156.8 7606.43 1158.24C7605.37 1159.67 7603.99 1160.9 7602.37 1161.87C7600.75 1162.85 7598.92 1163.54 7596.99 1163.9C7595.06 1164.27 7593.06 1164.3 7591.11 1164.01C7436.47 1140.85 7279.78 1129.22 7122.8 1129.23C5638.05 1129.23 4430.13 2164.5 4430.13 3437.03C4430.13 4709.55 5638.05 5744.82 7122.8 5744.82C8607.54 5744.82 9815.47 4709.55 9815.47 3437.03C9816.14 2861.86 9565.55 2307.31 9113.05 1882.57C9110.38 1880.04 9109 1876.71 9109.19 1873.3C9109.39 1869.9 9111.15 1866.7 9114.08 1864.41C9117.02 1862.11 9120.9 1860.9 9124.87 1861.05C9128.84 1861.2 9132.58 1862.69 9135.28 1865.19C9592.84 2294.69 9846.23 2855.43 9845.56 3437.03C9845.56 4723.77 8624.13 5770.61 7122.8 5770.61Z" fill="#E4E4E4"/>
<path d="M8323.33 1903.78C8620.85 1903.78 8862.03 1697.07 8862.03 1442.08C8862.03 1187.09 8620.85 980.378 8323.33 980.378C8025.82 980.378 7784.63 1187.09 7784.63 1442.08C7784.63 1697.07 8025.82 1903.78 8323.33 1903.78Z" fill="#7371FC"/>
<path d="M8249.84 1682.37C8240.54 1682.37 8231.36 1680.52 8223.04 1676.95C8214.72 1673.38 8207.49 1668.21 8201.91 1661.83L8054.94 1493.88C8050.22 1488.48 8046.79 1482.34 8044.83 1475.81C8042.88 1469.28 8042.45 1462.48 8043.56 1455.8C8044.67 1449.12 8047.31 1442.7 8051.32 1436.9C8055.33 1431.09 8060.63 1426.02 8066.93 1421.98C8073.22 1417.93 8080.39 1414.99 8088.01 1413.31C8095.63 1411.64 8103.57 1411.27 8111.36 1412.22C8119.15 1413.18 8126.64 1415.44 8133.41 1418.87C8140.18 1422.31 8146.1 1426.86 8150.82 1432.25L8246.97 1542.12L8493.92 1224.65C8502.76 1213.36 8516.46 1205.54 8532.01 1202.89C8547.57 1200.25 8563.72 1203 8576.91 1210.54C8590.11 1218.08 8599.28 1229.79 8602.42 1243.12C8605.55 1256.44 8602.39 1270.29 8593.64 1281.62L8299.71 1659.5C8294.39 1666.34 8287.24 1671.98 8278.85 1675.95C8270.47 1679.93 8261.09 1682.13 8251.51 1682.36C8250.95 1682.36 8250.4 1682.37 8249.84 1682.37Z" fill="white"/>
<path d="M7052.75 3074.88L6222.03 1094.16L6243.09 1087.67L6090.31 723.367L6069.25 729.863L5814.18 121.721C5804.66 99.0076 5790 78.1246 5771.06 60.2643C5752.12 42.4041 5729.26 27.9165 5703.78 17.6286C5678.31 7.34071 5650.72 1.45401 5622.59 0.30478C5594.46 -0.844451 5566.34 2.76623 5539.84 10.9306L4038.07 473.589C4011.57 481.753 3987.2 494.31 3966.36 510.545C3945.52 526.779 3928.62 546.373 3916.62 568.206C3904.61 590.04 3897.74 613.687 3896.4 637.796C3895.06 661.905 3899.27 686.004 3908.8 708.718L4086.64 1132.75L4053.35 1143.74L4166.88 1396.4L4193.52 1387.6L4217.1 1443.8L4188.74 1453.16L4302.26 1705.82L4323.98 1698.65L5147.37 3661.88C5156.85 3684.62 5171.47 3705.53 5190.41 3723.42C5209.34 3741.31 5232.21 3755.81 5257.7 3766.1C5283.19 3776.4 5310.79 3782.28 5338.94 3783.41C5367.09 3784.53 5395.22 3780.89 5421.71 3772.68L6923.47 3310.02C6976.96 3293.48 7020.6 3259.44 7044.84 3215.36C7069.07 3171.28 7071.92 3120.76 7052.75 3074.88Z" fill="#3F3D56"/>
<path d="M5342.73 3707.4C5321.58 3707.36 5300.96 3701.74 5283.67 3691.3C5266.38 3680.86 5253.26 3666.12 5246.09 3649.06L3994.46 664.733C3985.24 642.753 3986.59 618.535 3998.2 597.406C4009.82 576.278 4030.75 559.969 4056.4 552.067L4375.93 453.627L4375.45 463.209C4374.63 479.841 4378.59 496.392 4386.99 511.401C4395.4 526.411 4407.98 539.42 4423.62 549.281C4439.27 559.143 4457.51 565.554 4476.73 567.951C4495.95 570.348 4515.57 568.657 4533.85 563.027L5242.98 344.562C5260.09 337.841 5275.12 327.76 5286.85 315.136C5298.58 302.512 5306.68 287.699 5310.49 271.896C5314.26 256.356 5313.69 240.273 5308.82 224.958C5303.96 209.643 5294.94 195.532 5282.49 183.774L5275.01 176.642L5605.06 74.9543C5630.71 67.086 5658.96 68.2567 5683.6 78.2097C5708.25 88.1628 5727.28 106.086 5736.53 128.048L6930.7 2975.35C6955.07 3033.68 6951.45 3097.91 6920.64 3153.96C6889.82 3210 6834.33 3253.28 6766.33 3274.31L5377.56 3702.16C5366.39 3705.61 5354.61 3707.38 5342.73 3707.4Z" fill="white"/>
<path d="M5220.38 1590.67C5444.69 1590.67 5626.54 1434.82 5626.54 1242.56C5626.54 1050.31 5444.69 894.46 5220.38 894.46C4996.06 894.46 4814.22 1050.31 4814.22 1242.56C4814.22 1434.82 4996.06 1590.67 5220.38 1590.67Z" fill="#7371FC"/>
<path d="M6226.83 1748.79L4820.29 2182.11C4815.9 2183.48 4811.23 2184.08 4806.56 2183.9C4801.9 2183.72 4797.32 2182.74 4793.09 2181.04C4788.86 2179.34 4785.06 2176.94 4781.92 2173.98C4778.77 2171.01 4776.34 2167.55 4774.76 2163.78C4773.18 2160.01 4772.48 2156.02 4772.71 2152.02C4772.93 2148.02 4774.08 2144.09 4776.07 2140.47C4778.07 2136.85 4780.88 2133.6 4784.34 2130.92C4787.81 2128.23 4791.85 2126.15 4796.25 2124.8L6202.8 1691.48C6211.66 1688.77 6221.41 1689.19 6229.91 1692.63C6238.42 1696.08 6244.98 1702.27 6248.16 1709.86C6251.34 1717.45 6250.88 1725.81 6246.89 1733.1C6242.89 1740.4 6235.67 1746.04 6226.83 1748.79Z" fill="#E6E6E6"/>
<path d="M5809.14 2023.54L5346.48 2166.07C5342.09 2167.43 5337.43 2168.04 5332.76 2167.85C5328.09 2167.67 5323.52 2166.69 5319.29 2164.99C5315.06 2163.29 5311.27 2160.89 5308.12 2157.93C5304.98 2154.96 5302.55 2151.5 5300.97 2147.73C5299.39 2143.96 5298.69 2139.97 5298.91 2135.97C5299.14 2131.97 5300.28 2128.05 5302.28 2124.43C5304.27 2120.81 5307.08 2117.56 5310.54 2114.87C5314 2112.18 5318.05 2110.1 5322.45 2108.76L5785.1 1966.22C5793.97 1963.49 5803.74 1963.89 5812.26 1967.33C5820.78 1970.78 5827.36 1976.98 5830.55 1984.58C5833.74 1992.18 5833.27 2000.55 5829.26 2007.86C5825.24 2015.16 5818 2020.8 5809.14 2023.54Z" fill="#E6E6E6"/>
<path d="M5919.18 2285.91L5456.53 2428.45C5452.14 2429.8 5447.48 2430.4 5442.82 2430.21C5438.16 2430.02 5433.59 2429.04 5429.36 2427.34C5425.14 2425.63 5421.36 2423.23 5418.22 2420.27C5415.08 2417.31 5412.65 2413.85 5411.07 2410.09C5409.49 2406.33 5408.8 2402.33 5409.02 2398.34C5409.24 2394.35 5410.38 2390.43 5412.37 2386.81C5414.36 2383.19 5417.16 2379.95 5420.61 2377.26C5424.06 2374.57 5428.1 2372.49 5432.49 2371.13L5895.14 2228.6C5904.01 2225.87 5913.78 2226.27 5922.3 2229.71C5930.83 2233.15 5937.41 2239.36 5940.59 2246.96C5943.78 2254.56 5943.32 2262.93 5939.3 2270.24C5935.28 2277.54 5928.04 2283.18 5919.18 2285.91Z" fill="#E6E6E6"/>
<path d="M5975.54 2420.3L5512.89 2562.83C5508.49 2564.2 5503.83 2564.8 5499.16 2564.62C5494.49 2564.44 5489.91 2563.47 5485.68 2561.77C5481.45 2560.06 5477.66 2557.66 5474.51 2554.7C5471.37 2551.74 5468.93 2548.27 5467.35 2544.5C5465.77 2540.74 5465.07 2536.74 5465.3 2532.74C5465.52 2528.73 5466.67 2524.81 5468.67 2521.19C5470.66 2517.57 5473.47 2514.32 5476.94 2511.63C5480.4 2508.95 5484.45 2506.87 5488.85 2505.52L5951.5 2362.99C5955.9 2361.63 5960.56 2361.02 5965.23 2361.2C5969.9 2361.39 5974.48 2362.36 5978.71 2364.06C5982.93 2365.77 5986.73 2368.17 5989.87 2371.13C5993.02 2374.09 5995.45 2377.55 5997.03 2381.32C5998.61 2385.09 5999.31 2389.09 5999.08 2393.09C5998.86 2397.09 5997.72 2401.01 5995.72 2404.63C5993.72 2408.25 5990.91 2411.5 5987.45 2414.19C5983.99 2416.88 5979.94 2418.95 5975.54 2420.3Z" fill="#E6E6E6"/>
<path d="M6122.85 2072.95L5141.26 2375.35C5136.87 2376.71 5132.21 2377.32 5127.54 2377.14C5122.87 2376.95 5118.29 2375.98 5114.06 2374.28C5109.83 2372.58 5106.04 2370.18 5102.89 2367.22C5099.75 2364.25 5097.32 2360.79 5095.74 2357.02C5094.16 2353.25 5093.46 2349.25 5093.68 2345.25C5093.91 2341.25 5095.05 2337.33 5097.05 2333.71C5099.04 2330.09 5101.86 2326.84 5105.32 2324.15C5108.78 2321.47 5112.83 2319.39 5117.23 2318.04L6098.82 2015.64C6103.21 2014.27 6107.88 2013.67 6112.54 2013.85C6117.21 2014.04 6121.79 2015.01 6126.02 2016.71C6130.25 2018.41 6134.04 2020.81 6137.19 2023.77C6140.33 2026.74 6142.77 2030.2 6144.35 2033.97C6145.93 2037.74 6146.62 2041.74 6146.4 2045.74C6146.17 2049.74 6145.03 2053.66 6143.03 2057.28C6141.04 2060.9 6138.23 2064.15 6134.76 2066.84C6131.3 2069.52 6127.25 2071.6 6122.85 2072.95Z" fill="#E6E6E6"/>
<path d="M5925.14 2746.53L5757.15 2798.28C5742.08 2802.92 5725.47 2802.23 5710.99 2796.38C5696.5 2790.52 5685.32 2779.98 5679.91 2767.06C5674.49 2754.14 5675.28 2739.91 5682.1 2727.49C5688.92 2715.07 5701.21 2705.48 5716.28 2700.83L5884.27 2649.08C5899.34 2644.44 5915.95 2645.13 5930.43 2650.98C5944.92 2656.84 5956.1 2667.38 5961.52 2680.3C5966.93 2693.22 5966.14 2707.45 5959.32 2719.87C5952.5 2732.29 5940.21 2741.88 5925.14 2746.53Z" fill="#FF6366"/>
<path d="M4601.35 463.278C4614.25 463.278 4624.71 454.314 4624.71 443.256C4624.71 432.198 4614.25 423.234 4601.35 423.234C4588.45 423.234 4577.99 432.198 4577.99 443.256C4577.99 454.314 4588.45 463.278 4601.35 463.278Z" fill="white"/>
<path d="M1914.7 1569.35C2176.53 1305.2 2601.37 1138.73 2993.03 1225.04C2640.27 1450.12 2391.78 1774.89 2291.51 2141.88C2253.44 2283.53 2228.31 2444.48 2094.12 2533.39C2010.62 2588.7 1898.35 2603.82 1793.48 2593.79C1688.59 2583.75 1588.77 2550.95 1490.29 2518.43L1464.1 2520.92C1529.97 2178.95 1652.87 1833.5 1914.7 1569.35Z" fill="#F0F0F0"/>
<path d="M2992.04 1232.26C2668.7 1306.47 2380.86 1466.11 2169.41 1688.51C2122.9 1735.7 2085.36 1788.87 2058.17 1846.08C2033.78 1902.54 2027.47 1963.56 2039.91 2022.81C2050.21 2078.26 2068.24 2133.96 2062.64 2190.58C2059.27 2219.53 2048.79 2247.54 2031.9 2272.78C2015.02 2298.02 1992.09 2319.91 1964.64 2337.02C1897.53 2381.19 1815.91 2402.05 1735.26 2420.08C1645.72 2440.09 1552.34 2459.66 1480.37 2512.47C1471.65 2518.87 1460.58 2506.9 1469.29 2500.51C1594.5 2408.63 1772.32 2416.42 1911.8 2348.68C1976.89 2317.08 2031.26 2268.46 2042.97 2203.06C2053.21 2145.87 2034.67 2088.42 2023.68 2032.36C2010.56 1974.71 2014.1 1915.18 2034.01 1858.98C2057.72 1800.77 2092.81 1746.44 2137.78 1698.33C2237.01 1588.62 2355.76 1492.96 2489.66 1414.87C2641.9 1325.01 2810.96 1258.13 2989.51 1217.13C3000.57 1214.6 3003.02 1229.74 2992.04 1232.26Z" fill="white"/>
<path d="M2232.58 1613.47C2193.86 1578 2171.11 1531.88 2168.4 1483.36C2165.69 1434.84 2183.18 1387.08 2217.77 1348.59C2224.8 1340.83 2239.21 1349.83 2232.17 1357.6C2199.89 1393.39 2183.59 1437.88 2186.23 1483.06C2188.86 1528.24 2210.25 1571.12 2246.54 1603.96C2254.41 1611.11 2240.41 1620.57 2232.58 1613.47Z" fill="white"/>
<path d="M2030.37 1995.29C2146.12 1999.48 2259.47 1966.13 2347.8 1901.87C2356.55 1895.5 2367.62 1907.47 2358.89 1913.83C2266.82 1980.55 2148.79 2015.06 2028.34 2010.47C2016.86 2010.02 2018.95 1994.85 2030.37 1995.29Z" fill="white"/>
<path d="M2646.47 1344.88C2658.11 1361.28 2674.33 1374.95 2693.66 1384.65C2712.99 1394.35 2734.83 1399.79 2757.21 1400.47C2768.69 1400.78 2766.59 1415.96 2755.19 1415.64C2730.46 1414.79 2706.35 1408.76 2684.96 1398.09C2663.58 1387.41 2645.57 1372.4 2632.51 1354.38C2631.12 1352.77 2630.49 1350.77 2630.75 1348.78C2631.02 1346.78 2632.16 1344.95 2633.95 1343.65C2635.8 1342.4 2638.16 1341.83 2640.5 1342.06C2642.85 1342.29 2644.99 1343.3 2646.47 1344.88Z" fill="white"/>
<path d="M3575.43 2287.11C3568.25 2287.09 3561.08 2287.07 3553.81 2287.15C3457.34 2287.24 3361.04 2294.06 3265.86 2307.52C3258.48 2308.46 3251.02 2309.51 3243.69 2310.63C3014.78 2345.17 2795.34 2415.82 2596.52 2519.02C2517.45 2560.14 2442.15 2606.36 2371.26 2657.28C2273.37 2727.6 2173.75 2810.52 2057.88 2847.92C2045.84 2851.94 2033.53 2855.31 2021 2858.03L1469.68 2548.11C1468.84 2546.87 1467.91 2545.73 1467.06 2544.48L1444.39 2532.97C1447.83 2530.12 1451.47 2527.24 1454.91 2524.39C1456.9 2522.73 1459.01 2521.15 1461 2519.49C1462.37 2518.4 1463.74 2517.32 1464.9 2516.28C1465.35 2515.92 1465.81 2515.56 1466.18 2515.31C1467.34 2514.26 1468.55 2513.4 1469.62 2512.46C1489.92 2496.27 1510.39 2480.18 1531.03 2464.18C1531.11 2464.08 1531.11 2464.08 1531.32 2464.04C1688.93 2342.48 1859.77 2231.14 2044.89 2145.55C2050.46 2142.98 2056.11 2140.3 2061.93 2137.86C2145.62 2099.68 2232.82 2067.43 2322.65 2041.43C2371.88 2027.32 2421.93 2015.37 2472.58 2005.6C2603.5 1980.58 2738.21 1973.36 2871.75 1984.22C3137.97 2005.9 3393.13 2100.3 3562.63 2273.75C3566.96 2278.19 3571.18 2282.57 3575.43 2287.11Z" fill="#F0F0F0"/>
<path d="M3569.6 2292.42C3259.3 2184.82 2917.33 2163.76 2592.27 2232.22C2521.98 2245.9 2454.65 2268.98 2392.76 2300.62C2333.62 2333.12 2285.72 2378.59 2254.03 2432.32C2223.3 2481.9 2198.57 2535.68 2154.32 2578C2131.29 2599.37 2103.25 2616.33 2072.04 2627.77C2040.82 2639.21 2007.14 2644.86 1973.2 2644.36C1888.6 2644.99 1808.77 2619.53 1731.71 2592.31C1646.16 2562.08 1557.85 2529.52 1463.29 2534.55C1451.84 2535.16 1451.4 2519.89 1462.84 2519.28C1627.36 2510.53 1763.87 2608.51 1922.82 2626.4C1997 2634.75 2074.55 2623.99 2129.85 2577.81C2178.2 2537.43 2203.76 2482 2234.36 2431.56C2264.38 2378.76 2309.03 2333.06 2364.41 2298.46C2424.23 2264.22 2490.41 2238.95 2560.12 2223.74C2716.42 2187.34 2878.42 2172.24 3040.19 2178.98C3224.88 2185.79 3406.84 2219.63 3578.2 2279.03C3588.81 2282.71 3580.14 2296.07 3569.6 2292.42Z" fill="white"/>
<path d="M2695.42 2204.9C2689.42 2156.59 2703.65 2108.04 2735.57 2067.9C2767.49 2027.76 2815.01 1998.65 2869.66 1985.77C2880.73 1983.19 2885.92 1997.81 2874.83 2000.39C2823.92 2012.3 2779.65 2039.42 2750.02 2076.85C2720.39 2114.28 2707.34 2159.56 2713.24 2204.51C2714.51 2214.28 2696.68 2214.61 2695.42 2204.9Z" fill="white"/>
<path d="M2265.74 2405.42C2355.22 2468.49 2469.15 2500.35 2584.82 2494.63C2596.28 2494.05 2596.71 2509.33 2585.27 2509.9C2464.89 2515.66 2346.41 2482.3 2253.46 2416.49C2244.61 2410.21 2256.94 2399.17 2265.74 2405.42Z" fill="white"/>
<path d="M3214.56 2204.02C3212.34 2223.12 3215.69 2242.4 3224.3 2260.12C3232.92 2277.84 3246.54 2293.45 3263.94 2305.54C3272.88 2311.72 3260.54 2322.75 3251.66 2316.61C3232.51 2303.18 3217.49 2285.92 3207.92 2266.36C3198.35 2246.8 3194.51 2225.53 3196.74 2204.4C3196.76 2202.4 3197.67 2200.47 3199.28 2199.02C3200.89 2197.56 3203.09 2196.69 3205.43 2196.57C3207.79 2196.53 3210.07 2197.29 3211.78 2198.69C3213.49 2200.08 3214.49 2201.99 3214.56 2204.02Z" fill="white"/>
<path d="M9772.59 6646.38C10058.1 6706.37 10391 6649.32 10578.8 6455.51C10259.2 6451.72 9951.43 6351.16 9709.99 6171.61C9617.16 6102.08 9522.37 6016.46 9399.15 6013.08C9322.48 6010.98 9248.84 6043.06 9192.06 6087.26C9135.28 6131.47 9092.79 6187.23 9050.94 6242.33L9034.28 6250.42C9243.03 6427.79 9487.1 6586.38 9772.59 6646.38Z" fill="#F0F0F0"/>
<path d="M10574.7 6451.61C10347.3 6525.95 10098.5 6537 9863.39 6483.21C9812.55 6472.39 9764.01 6454.78 9719.56 6431.02C9677.14 6406.67 9643.1 6373.03 9620.97 6333.59C9599.48 6297.17 9582.42 6257.79 9550.98 6226.48C9534.61 6210.66 9514.52 6197.98 9492.03 6189.28C9469.54 6180.58 9445.16 6176.06 9420.48 6176C9359.01 6174.49 9300.57 6192 9244.11 6210.83C9181.42 6231.73 9116.7 6254.29 9048.07 6249.46C9039.75 6248.87 9039.18 6259.96 9047.48 6260.55C9166.89 6268.96 9267.75 6199.45 9383.57 6188.43C9437.61 6183.28 9493.79 6192.07 9533.19 6226.31C9567.65 6256.26 9585.28 6296.86 9606.67 6333.89C9627.59 6372.64 9659.27 6406.4 9698.92 6432.24C9741.81 6457.87 9789.48 6477.05 9839.88 6488.97C9952.85 6517.36 10070.3 6530.35 10188 6527.47C10322.3 6524.81 10455.1 6502.48 10580.7 6461.45C10588.4 6458.9 10582.4 6449.09 10574.7 6451.61Z" fill="white"/>
<path d="M9937.89 6504.35C9932.71 6539.37 9942.23 6574.84 9964.75 6604.4C9987.27 6633.97 10021.3 6655.72 10060.8 6665.76C10068.8 6667.76 10072.8 6657.2 10064.8 6655.19C10028 6645.9 9996.3 6625.65 9975.4 6598.08C9954.5 6570.51 9945.79 6537.44 9950.83 6504.85C9951.92 6497.76 9938.97 6497.3 9937.89 6504.35Z" fill="white"/>
<path d="M9629.03 6353.28C9695.12 6308.56 9778.46 6286.82 9862.42 6292.42C9870.74 6292.98 9871.31 6281.88 9863 6281.33C9775.62 6275.64 9688.95 6298.41 9620.29 6345.08C9613.75 6349.54 9622.53 6357.71 9629.03 6353.28Z" fill="white"/>
<path d="M10315.1 6511.44C10313.9 6497.53 10316.6 6483.56 10323.2 6470.79C10329.7 6458.02 10339.9 6446.85 10352.7 6438.27C10359.3 6433.89 10350.6 6425.72 10344 6430.07C10329.9 6439.6 10318.7 6451.96 10311.4 6466.05C10304.1 6480.15 10300.9 6495.56 10302.2 6510.94C10302.2 6512.4 10302.8 6513.81 10304 6514.88C10305.1 6515.96 10306.7 6516.62 10308.4 6516.73C10310.1 6516.79 10311.8 6516.27 10313 6515.28C10314.3 6514.29 10315.1 6512.91 10315.1 6511.44Z" fill="white"/>
<path d="M10394 5617.35C10389.8 5619.99 10385.6 5622.62 10381.3 5625.23C10324.4 5660.39 10264.3 5691.53 10201.5 5718.35C10196.7 5720.49 10191.8 5722.59 10186.9 5724.61C10034.9 5787.84 9870.58 5826.33 9702.2 5838.14C9635.19 5842.78 9567.87 5843.05 9500.81 5838.94C9408.2 5833.26 9308.32 5820.78 9221.49 5841.06C9212.4 5843.09 9203.47 5845.59 9194.75 5848.57L9024.05 6232.37C9024.18 6233.41 9024.2 6234.42 9024.32 6235.47L9016.68 6250.52C9020.13 6250.94 9023.7 6251.31 9027.15 6251.73C9029.14 6251.98 9031.17 6252.15 9033.17 6252.4C9034.51 6252.54 9035.86 6252.67 9037.06 6252.87C9037.5 6252.91 9037.95 6252.96 9038.3 6252.97C9039.5 6253.16 9040.64 6253.23 9041.74 6253.39C9061.74 6255.51 9081.79 6257.52 9101.9 6259.41C9102 6259.44 9102 6259.44 9102.14 6259.39C9255.18 6275.03 9409.85 6275.06 9562.9 6259.48C9567.46 6258.96 9572.13 6258.48 9576.76 6257.79C9645.03 6249.72 9712.42 6236.88 9778.25 6219.41C9814.26 6209.74 9849.67 6198.51 9884.36 6185.78C9973.91 6152.71 10056.8 6107.79 10130.1 6052.64C10276.1 5942.69 10379.5 5793.93 10393.1 5629.9C10393.5 5625.7 10393.8 5621.58 10394 5617.35Z" fill="#F0F0F0"/>
<path d="M10387.9 5616.36C10258.6 5793.01 10067.7 5930.26 9842.23 6008.6C9794.03 6026.21 9742.91 6037.19 9690.72 6041.15C9639.75 6043.6 9588.93 6034.31 9543.57 6014.23C9500.82 5996.24 9459.54 5973.6 9412.44 5964.83C9388.25 5960.65 9363.31 5960.89 9339.24 5965.55C9315.17 5970.21 9292.53 5979.18 9272.79 5991.87C9222.64 6022.38 9188.28 6066.52 9156.42 6110.68C9121.05 6159.72 9085.22 6211.13 9027.03 6242.69C9019.98 6246.51 9027.31 6255.67 9034.36 6251.85C9135.6 6196.94 9167.31 6089.4 9252.04 6020.83C9291.57 5988.84 9342.6 5966.86 9398.12 5973.88C9446.67 5980.01 9489.27 6003.32 9532.36 6021.86C9576.28 6042 9625.29 6052.61 9675.1 6052.78C9727.35 6051.11 9778.89 6041.83 9827.51 6025.34C9937.65 5989.71 10040.6 5939.47 10132.5 5876.44C10237.9 5805.01 10328.2 5718.65 10399.7 5621.1C10404.1 5615.06 10392.3 5610.36 10387.9 5616.36Z" fill="white"/>
<path d="M9916.56 5987.04C9937.03 6017.68 9969.55 6041.08 10008.3 6053.07C10047 6065.06 10089.5 6064.86 10128.1 6052.49C10135.9 6049.97 10131.7 6039.46 10123.9 6041.99C10088 6053.56 10048.4 6053.75 10012.4 6042.52C9976.3 6031.29 9946.11 6009.39 9927.25 5980.76C9923.14 5974.54 9912.48 5980.86 9916.56 5987.04Z" fill="white"/>
<path d="M9563.84 6025.8C9585.19 5955.98 9636.46 5895.63 9707.43 5856.77C9714.46 5852.93 9707.13 5843.77 9700.1 5847.61C9626.34 5888.17 9573.13 5951.07 9551.1 6023.76C9549.01 6030.69 9561.75 6032.69 9563.84 6025.8Z" fill="white"/>
<path d="M10222.8 5798.04C10212 5787.6 10204.3 5775.02 10200.6 5761.44C10196.9 5747.85 10197.1 5733.69 10201.4 5720.21C10203.6 5713.31 10190.8 5711.32 10188.6 5718.18C10184.1 5733.08 10183.8 5748.73 10187.9 5763.74C10191.9 5778.76 10200.3 5792.69 10212.1 5804.31C10213.1 5805.49 10214.6 5806.29 10216.2 5806.56C10217.9 5806.83 10219.6 5806.54 10221.1 5805.76C10222.5 5804.92 10223.5 5803.64 10223.8 5802.19C10224.1 5800.75 10223.7 5799.25 10222.8 5798.04Z" fill="white"/>
<path d="M10916.6 4294.58L10481.2 4922.46L10497.8 4929.93L10350.3 5169.48L10319.7 5155.56L10222.8 5295.19L10246.8 5307.05L10088.9 5541.44L10061.5 5527.9L8641.02 7576.81C8603.77 7630.43 8543.22 7669.19 8472.66 7684.59C8402.09 7699.99 8327.28 7690.76 8264.65 7658.94L5623.87 6314.1C5561.31 6282.18 5516.07 6230.28 5498.11 6169.8C5480.14 6109.32 5490.91 6045.2 5528.05 5991.52L7803.59 2709.29C7840.84 2655.67 7901.39 2616.91 7971.95 2601.51C8042.52 2586.12 8117.32 2595.34 8179.96 2627.17L10820.7 3972.01C10883.3 4003.95 10928.5 4055.85 10946.4 4116.32C10964.4 4176.79 10953.7 4240.89 10916.6 4294.58Z" fill="#3F3D56"/>
<path d="M8358.77 7532.24L5708.69 6182.68C5689.41 6172.83 5675.47 6156.83 5669.93 6138.19C5664.4 6119.55 5667.71 6099.79 5679.15 6083.24L7969.79 2779.18C7981.28 2762.65 7999.94 2750.71 8021.69 2745.96C8043.44 2741.22 8066.5 2744.06 8085.81 2753.86L10735.9 4103.43C10755.2 4113.27 10769.1 4129.27 10774.6 4147.91C10780.2 4166.55 10776.9 4186.32 10765.4 4202.86L8474.78 7506.93C8463.3 7523.45 8444.63 7535.4 8422.88 7540.15C8401.13 7544.89 8378.07 7542.05 8358.77 7532.24Z" fill="white"/>
<path d="M9447.35 3376.43C9460.25 3376.43 9470.71 3367.46 9470.71 3356.4C9470.71 3345.34 9460.25 3336.38 9447.35 3336.38C9434.44 3336.38 9423.98 3345.34 9423.98 3356.4C9423.98 3367.46 9434.44 3376.43 9447.35 3376.43Z" fill="white"/>
<path d="M9302.77 5743.25L7090.61 4616.7C7083.68 4613.2 7077.61 4608.56 7072.77 4603.04C7067.93 4597.53 7064.41 4591.25 7062.41 4584.56C7060.41 4577.88 7059.96 4570.92 7061.11 4564.09C7062.25 4557.26 7064.96 4550.69 7069.07 4544.76C7073.18 4538.82 7078.62 4533.64 7085.08 4529.52C7091.53 4525.39 7098.87 4522.4 7106.68 4520.71C7114.49 4519.02 7122.61 4518.67 7130.57 4519.67C7138.54 4520.68 7146.19 4523.02 7153.1 4526.57L9365.25 5653.12C9372.19 5656.62 9378.25 5661.26 9383.1 5666.78C9387.94 5672.3 9391.46 5678.58 9393.46 5685.26C9395.46 5691.95 9395.9 5698.9 9394.76 5705.73C9393.61 5712.56 9390.91 5719.14 9386.8 5725.07C9382.68 5731 9377.24 5736.18 9370.79 5740.31C9364.34 5744.43 9357 5747.43 9349.19 5749.12C9341.38 5750.81 9333.26 5751.16 9325.3 5750.15C9317.33 5749.15 9309.67 5746.8 9302.77 5743.25Z" fill="#E6E6E6"/>
<path d="M8419.47 5568.69L7691.83 5198.14C7684.92 5194.62 7678.89 5189.97 7674.08 5184.46C7669.27 5178.95 7665.77 5172.67 7663.79 5166C7661.81 5159.33 7661.38 5152.39 7662.53 5145.57C7663.67 5138.76 7666.38 5132.21 7670.48 5126.29C7674.58 5120.37 7680.01 5115.2 7686.44 5111.08C7692.88 5106.95 7700.2 5103.96 7707.98 5102.26C7715.77 5100.56 7723.87 5100.2 7731.82 5101.18C7739.77 5102.17 7747.41 5104.48 7754.32 5108L8481.96 5478.56C8488.86 5482.07 8494.89 5486.72 8499.7 5492.23C8504.51 5497.75 8508.01 5504.02 8509.99 5510.69C8511.97 5517.36 8512.4 5524.3 8511.25 5531.12C8510.1 5537.93 8507.4 5544.48 8503.3 5550.4C8499.19 5556.32 8493.77 5561.49 8487.34 5565.61C8480.91 5569.73 8473.59 5572.73 8465.8 5574.43C8458.02 5576.13 8449.92 5576.49 8441.97 5575.51C8434.02 5574.53 8426.37 5572.21 8419.47 5568.69Z" fill="#E6E6E6"/>
<path d="M8133.38 5981.35L7405.74 5610.8C7391.8 5603.69 7381.72 5592.13 7377.72 5578.66C7373.72 5565.19 7376.13 5550.91 7384.41 5538.95C7392.7 5527 7406.19 5518.36 7421.9 5514.93C7437.62 5511.5 7454.29 5513.56 7468.23 5520.66L8195.87 5891.21C8202.78 5894.73 8208.81 5899.38 8213.62 5904.89C8218.43 5910.4 8221.92 5916.68 8223.9 5923.35C8225.89 5930.02 8226.31 5936.96 8225.17 5943.77C8224.02 5950.59 8221.31 5957.14 8217.21 5963.06C8213.11 5968.98 8207.69 5974.15 8201.25 5978.27C8194.82 5982.39 8187.5 5985.39 8179.72 5987.08C8171.93 5988.78 8163.83 5989.15 8155.88 5988.17C8147.93 5987.18 8140.29 5984.87 8133.38 5981.35Z" fill="#E6E6E6"/>
<path d="M7986.85 6192.71L7259.21 5822.15C7252.29 5818.65 7246.24 5814 7241.41 5808.49C7236.58 5802.97 7233.07 5796.7 7231.08 5790.02C7229.08 5783.34 7228.65 5776.39 7229.79 5769.56C7230.94 5762.74 7233.64 5756.17 7237.75 5750.25C7241.86 5744.32 7247.29 5739.14 7253.74 5735.02C7260.18 5730.89 7267.52 5727.9 7275.31 5726.21C7283.11 5724.51 7291.22 5724.16 7299.18 5725.15C7307.14 5726.15 7314.8 5728.48 7321.7 5732.02L8049.34 6102.57C8056.28 6106.08 8062.34 6110.72 8067.19 6116.23C8072.03 6121.75 8075.55 6128.03 8077.55 6134.71C8079.55 6141.4 8080 6148.36 8078.85 6155.19C8077.71 6162.02 8075.01 6168.59 8070.89 6174.53C8066.78 6180.46 8061.34 6185.64 8054.88 6189.77C8048.43 6193.89 8041.09 6196.89 8033.28 6198.58C8025.47 6200.27 8017.35 6200.62 8009.38 6199.61C8001.42 6198.6 7993.76 6196.26 7986.85 6192.71Z" fill="#E6E6E6"/>
<path d="M8686.52 5979.94L7142.71 5193.75C7128.84 5186.62 7118.82 5175.07 7114.86 5161.62C7110.9 5148.18 7113.32 5133.94 7121.58 5122.02C7129.85 5110.1 7143.29 5101.47 7158.96 5098.02C7174.63 5094.57 7191.26 5096.59 7205.2 5103.62L8749 5889.81C8755.94 5893.31 8762.01 5897.95 8766.85 5903.47C8771.69 5908.99 8775.21 5915.27 8777.22 5921.95C8779.22 5928.64 8779.66 5935.59 8778.52 5942.43C8777.37 5949.26 8774.67 5955.83 8770.55 5961.76C8766.44 5967.7 8761 5972.87 8754.55 5977C8748.09 5981.13 8740.75 5984.12 8732.94 5985.81C8725.13 5987.5 8717.01 5987.85 8709.05 5986.85C8701.08 5985.84 8693.42 5983.49 8686.52 5979.94Z" fill="#E6E6E6"/>
<path d="M8392.27 6984.7L8128.06 6850.15C8104.38 6838.06 8087.27 6818.4 8080.49 6795.51C8073.7 6772.61 8077.8 6748.34 8091.88 6728.03C8105.96 6707.72 8128.87 6693.03 8155.58 6687.19C8182.29 6681.35 8210.61 6684.84 8234.32 6696.88L8498.52 6831.43C8522.24 6843.5 8539.38 6863.16 8546.19 6886.07C8552.99 6908.98 8548.9 6933.27 8534.81 6953.6C8520.72 6973.92 8497.79 6988.62 8471.05 6994.45C8444.32 7000.28 8415.98 6996.77 8392.27 6984.7Z" fill="#7371FC"/>
<path d="M8885.2 4800.15C9184.29 4800.15 9426.74 4592.34 9426.74 4336.01C9426.74 4079.67 9184.29 3871.87 8885.2 3871.87C8586.11 3871.87 8343.66 4079.67 8343.66 4336.01C8343.66 4592.34 8586.11 4800.15 8885.2 4800.15Z" fill="#7371FC"/>
<path d="M6.37817 6222.1H7334.98V2585.73C7334.94 2558.48 7322.29 2532.36 7299.82 2513.1C7277.34 2493.83 7246.86 2483 7215.07 2482.97H126.285C94.4951 2483 64.0177 2493.83 41.5387 2513.1C19.0597 2532.36 6.41488 2558.48 6.37817 2585.73V6222.1Z" fill="#CACACA"/>
<path d="M7108.55 2625.1H232.806V5970.64H7108.55V2625.1Z" fill="white"/>
<path d="M9.85874e-09 6123.7V6572.43C-0.000237046 6591.03 4.27466 6609.45 12.5806 6626.64C20.8866 6643.83 33.061 6659.44 48.4087 6672.6C63.7563 6685.75 81.9769 6696.19 102.03 6703.3C122.082 6710.42 143.575 6714.09 165.28 6714.09H2870.21V7599.67H2834.27C2831.46 7599.67 2828.66 7600.15 2826.06 7601.07C2823.45 7602 2821.09 7603.35 2819.09 7605.06C2817.1 7606.77 2815.52 7608.8 2814.44 7611.03C2813.36 7613.26 2812.8 7615.66 2812.8 7618.07V7679.67C2812.8 7682.09 2813.36 7684.48 2814.44 7686.71C2815.52 7688.94 2817.1 7690.97 2819.09 7692.68C2821.09 7694.39 2823.45 7695.74 2826.06 7696.67C2828.66 7697.59 2831.45 7698.07 2834.27 7698.07H4513.46C4516.28 7698.07 4519.07 7697.59 4521.67 7696.67C4524.28 7695.74 4526.65 7694.39 4528.64 7692.68C4530.63 7690.97 4532.22 7688.94 4533.29 7686.71C4534.37 7684.48 4534.93 7682.09 4534.93 7679.67V7618.07C4534.93 7615.66 4534.37 7613.26 4533.29 7611.03C4532.22 7608.8 4530.63 7606.77 4528.64 7605.06C4526.65 7603.35 4524.28 7602 4521.67 7601.07C4519.07 7600.15 4516.28 7599.67 4513.46 7599.67H4477.53V6714.09H7182.45C7204.16 6714.09 7225.65 6710.42 7245.7 6703.31C7265.76 6696.19 7283.98 6685.75 7299.32 6672.6C7314.67 6659.44 7326.85 6643.83 7335.15 6626.64C7343.46 6609.45 7347.73 6591.03 7347.73 6572.43V6123.7L9.85874e-09 6123.7Z" fill="#3F3D56"/>
<path d="M6113.62 3743.97H2857.54C2837.01 3743.97 2817.32 3736.98 2802.81 3724.54C2788.29 3712.1 2780.14 3695.23 2780.14 3677.64C2780.14 3660.05 2788.29 3643.17 2802.81 3630.74C2817.32 3618.3 2837.01 3611.31 2857.54 3611.31H6113.62C6134.15 3611.31 6153.83 3618.3 6168.35 3630.74C6182.86 3643.17 6191.02 3660.05 6191.02 3677.64C6191.02 3695.23 6182.86 3712.1 6168.35 3724.54C6153.83 3736.98 6134.15 3743.97 6113.62 3743.97Z" fill="#E6E6E6"/>
<path d="M5021.09 4043.41H3950.07C3929.54 4043.41 3909.85 4036.42 3895.34 4023.98C3880.82 4011.54 3872.67 3994.67 3872.67 3977.08C3872.67 3959.48 3880.82 3942.61 3895.34 3930.17C3909.85 3917.73 3929.54 3910.74 3950.07 3910.74H5021.09C5041.61 3910.74 5061.3 3917.73 5075.82 3930.17C5090.33 3942.61 5098.49 3959.48 5098.49 3977.08C5098.49 3994.67 5090.33 4011.54 5075.82 4023.98C5061.3 4036.42 5041.61 4043.41 5021.09 4043.41Z" fill="#E6E6E6"/>
<path d="M5021.09 4650.81H3950.07C3929.54 4650.81 3909.85 4643.82 3895.34 4631.38C3880.82 4618.94 3872.67 4602.06 3872.67 4584.47C3872.67 4566.88 3880.82 4550 3895.34 4537.56C3909.85 4525.12 3929.54 4518.13 3950.07 4518.13H5021.09C5041.61 4518.13 5061.3 4525.12 5075.82 4537.56C5090.33 4550 5098.49 4566.88 5098.49 4584.47C5098.49 4602.06 5090.33 4618.94 5075.82 4631.38C5061.3 4643.82 5041.61 4650.81 5021.09 4650.81Z" fill="#E6E6E6"/>
<path d="M5021.09 4961.91H3950.07C3939.9 4961.91 3929.84 4960.19 3920.45 4956.86C3911.06 4953.52 3902.53 4948.64 3895.34 4942.48C3888.15 4936.32 3882.45 4929.01 3878.56 4920.96C3874.67 4912.91 3872.67 4904.28 3872.67 4895.57C3872.67 4886.86 3874.67 4878.24 3878.56 4870.19C3882.45 4862.14 3888.15 4854.83 3895.34 4848.67C3902.53 4842.51 3911.06 4837.62 3920.45 4834.29C3929.84 4830.96 3939.9 4829.24 3950.07 4829.24H5021.09C5031.25 4829.24 5041.31 4830.96 5050.7 4834.29C5060.09 4837.62 5068.63 4842.51 5075.81 4848.67C5083 4854.83 5088.7 4862.14 5092.59 4870.19C5096.48 4878.24 5098.48 4886.86 5098.48 4895.57C5098.48 4904.28 5096.48 4912.91 5092.59 4920.96C5088.7 4929.01 5083 4936.32 5075.81 4942.48C5068.63 4948.64 5060.09 4953.52 5050.7 4956.86C5041.31 4960.19 5031.25 4961.91 5021.09 4961.91Z" fill="#E6E6E6"/>
<path d="M5621.75 4342.85H3349.41C3328.88 4342.85 3309.19 4335.86 3294.68 4323.42C3280.17 4310.98 3272.01 4294.11 3272.01 4276.51C3272.01 4258.92 3280.17 4242.05 3294.68 4229.61C3309.19 4217.17 3328.88 4210.18 3349.41 4210.18H5621.75C5642.27 4210.18 5661.96 4217.17 5676.47 4229.61C5690.99 4242.05 5699.14 4258.92 5699.14 4276.51C5699.14 4294.11 5690.99 4310.98 5676.47 4323.42C5661.96 4335.86 5642.27 4342.85 5621.75 4342.85Z" fill="#E6E6E6"/>
<path d="M6059.41 5598.87H5670.53C5635.62 5598.87 5602.15 5586.98 5577.47 5565.83C5552.79 5544.68 5538.92 5515.99 5538.92 5486.07C5538.92 5456.15 5552.79 5427.46 5577.47 5406.31C5602.15 5385.15 5635.62 5373.27 5670.53 5373.27H6059.41C6094.32 5373.27 6127.79 5385.15 6152.47 5406.31C6177.16 5427.46 6191.02 5456.15 6191.02 5486.07C6191.02 5515.99 6177.16 5544.68 6152.47 5565.83C6127.79 5586.98 6094.32 5598.87 6059.41 5598.87Z" fill="#7371FC"/>
<path d="M1833.64 4780.18C2207.5 4780.18 2510.57 4520.43 2510.57 4200.01C2510.57 3879.59 2207.5 3619.84 1833.64 3619.84C1459.79 3619.84 1156.71 3879.59 1156.71 4200.01C1156.71 4520.43 1459.79 4780.18 1833.64 4780.18Z" fill="#7371FC"/>
<path d="M9755.07 7722H17.9113C13.1699 7721.99 8.62749 7720.37 5.27967 7717.49C1.93185 7714.61 0.0517578 7710.71 0.0517578 7706.65C0.0517578 7702.58 1.93185 7698.69 5.27967 7695.81C8.62749 7692.93 13.1699 7691.31 17.9113 7691.3H9755.07C9759.81 7691.31 9764.35 7692.93 9767.7 7695.81C9771.05 7698.69 9772.93 7702.58 9772.93 7706.65C9772.93 7710.71 9771.05 7714.61 9767.7 7717.49C9764.35 7720.37 9759.81 7721.99 9755.07 7722Z" fill="#CACACA"/>
<path d="M3667.49 2554.03C3681.58 2554.03 3693 2544.24 3693 2532.16C3693 2520.09 3681.58 2510.3 3667.49 2510.3C3653.4 2510.3 3641.97 2520.09 3641.97 2532.16C3641.97 2544.24 3653.4 2554.03 3667.49 2554.03Z" fill="white"/>
</g>
<defs>
<clipPath id="clip0_0_1">
<rect width="10955" height="7722" fill="white"/>
</clipPath>
</defs>
</svg>
